<svg xmlns="http://www.w3.org/2000/svg" viewBox="0 0 200 220"><defs><radialGradient id="bh" cx="40%" cy="30%" r="78%"><stop offset="0%" stop-color="#FFE9B0"></stop><stop offset="38%" stop-color="#FFC88A"></stop><stop offset="72%" stop-color="#FF9F86"></stop><stop offset="100%" stop-color="#F98DB6"></stop></radialGradient><radialGradient id="th" cx="40%" cy="35%" r="70%"><stop offset="0%" stop-color="#FFD3E4"></stop><stop offset="100%" stop-color="#F98DB6"></stop></radialGradient><radialGradient id="sh" cx="50%" cy="50%" r="50%"><stop offset="0%" stop-color="#5A2A4A" stop-opacity="0.22"></stop><stop offset="100%" stop-color="#5A2A4A" stop-opacity="0"></stop></radialGradient><radialGradient id="oh" cx="50%" cy="85%" r="60%"><stop offset="0%" stop-color="#C2577E" stop-opacity="0.32"></stop><stop offset="100%" stop-color="#C2577E" stop-opacity="0"></stop></radialGradient><filter id="fzh" x="-15%" y="-15%" width="130%" height="130%"><feTurbulence type="fractalNoise" baseFrequency="0.9" numOctaves="2" seed="4" result="n"></feTurbulence><feDisplacementMap in="SourceGraphic" in2="n" scale="7" xChannelSelector="R" yChannelSelector="G" result="d"></feDisplacementMap><feTurbulence type="fractalNoise" baseFrequency="1.8" numOctaves="2" seed="9" result="g"></feTurbulence><feColorMatrix in="g" type="matrix" values="0 0 0 0 0.45  0 0 0 0 0.2  0 0 0 0 0.28  0 0 0 0.7 -0.2" result="dark"></feColorMatrix><feComposite in="dark" in2="d" operator="in" result="grain"></feComposite><feTurbulence type="fractalNoise" baseFrequency="1.4" numOctaves="1" seed="21" result="g2"></feTurbulence><feColorMatrix in="g2" type="matrix" values="0 0 0 0 1  0 0 0 0 1  0 0 0 0 1  0 0 0 0.6 -0.22" result="light"></feColorMatrix><feComposite in="light" in2="d" operator="in" result="sheen"></feComposite><feMerge><feMergeNode in="d"></feMergeNode><feMergeNode in="grain"></feMergeNode><feMergeNode in="sheen"></feMergeNode></feMerge></filter><filter id="softh" x="-50%" y="-50%" width="200%" height="200%"><feGaussianBlur stdDeviation="7"></feGaussianBlur></filter><filter id="softsh" x="-50%" y="-50%" width="200%" height="200%"><feGaussianBlur stdDeviation="3"></feGaussianBlur></filter></defs><ellipse cx="100" cy="206" rx="64" ry="11" fill="url(#sh)"></ellipse><g transform="rotate(0 100 120)"><g filter="url(#fzh)"><path d="M100 38 C104 22 118 14 121 24" stroke="#F98DB6" stroke-width="7" fill="none" stroke-linecap="round"></path><circle cx="122" cy="21" r="9" fill="url(#th)"></circle><ellipse cx="34" cy="146" rx="13" ry="17" transform="rotate(24 34 146)" fill="#FFAE8A"></ellipse><path d="M100 34 C152 34 174 74 174 124 C174 172 142 198 100 198 C58 198 26 172 26 124 C26 74 48 34 100 34 Z" fill="url(#bh)"></path><path d="M100 34 C152 34 174 74 174 124 C174 172 142 198 100 198 C58 198 26 172 26 124 C26 74 48 34 100 34 Z" fill="url(#oh)"></path></g><ellipse cx="76" cy="72" rx="30" ry="18" transform="rotate(-28 76 72)" fill="#FFFFFF" fill-opacity="0.38" filter="url(#softh)"></ellipse><ellipse cx="62" cy="134" rx="14" ry="8" fill="#F2618F" fill-opacity="0.38" filter="url(#softsh)"></ellipse><ellipse cx="138" cy="134" rx="14" ry="8" fill="#F2618F" fill-opacity="0.38" filter="url(#softsh)"></ellipse><path d="M66 114 Q78 100 90 114" stroke="#2B1A2E" stroke-width="5" fill="none" stroke-linecap="round"></path><path d="M110 114 Q122 100 134 114" stroke="#2B1A2E" stroke-width="5" fill="none" stroke-linecap="round"></path><path d="M84 138 Q100 162 116 138 Z" fill="#2B1A2E"></path><path d="M92 150 Q100 158 108 150 Q100 146 92 150 Z" fill="#FF6FA8"></path><ellipse cx="170" cy="122" rx="13" ry="17" transform="rotate(-50 170 122)" fill="#FFAE8A" filter="url(#fzh)"></ellipse><path d="M178 70 L182 80 L192 82 L182 86 L178 96 L174 86 L164 82 L174 80 Z" fill="#FFC93C"></path></g></svg>